<svg id="Capa_1" enable-background="new 0 0 512 512" height="512" viewBox="0 0 512 512" width="512" xmlns="http://www.w3.org/2000/svg"><g><path d="m476.225 211c-5.728-28.096-16.86-54.976-32.681-78.911l24.58-24.58-63.633-63.633-24.58 24.58c-23.935-15.82-50.815-26.953-78.911-32.681v-35.775h-45-45v35.775c-28.096 5.728-54.976 16.86-78.911 32.681l-24.58-24.58-63.633 63.633 24.58 24.58c-15.82 23.935-26.953 50.815-32.681 78.911h-35.775v90h35.775c5.728 28.096 16.86 54.976 32.681 78.911l-24.58 24.58 63.633 63.633 24.58-24.58c23.936 15.82 50.815 26.953 78.911 32.681v35.775h45 45v-35.775c28.096-5.728 54.976-16.86 78.911-32.681l24.58 24.58 63.633-63.633-24.58-24.58c15.82-23.936 26.953-50.815 32.681-78.911h35.775v-90z" fill="#f0f7ff"/><path d="m301 476.225c28.096-5.728 54.976-16.86 78.911-32.681l24.58 24.58 63.633-63.633-24.58-24.58c15.82-23.936 26.953-50.815 32.681-78.911h35.775v-90h-35.775c-5.728-28.096-16.86-54.976-32.681-78.911l24.58-24.58-63.633-63.633-24.58 24.58c-23.935-15.82-50.815-26.953-78.911-32.681v-35.775h-45v512h45z" fill="#dfe7f4"/><circle cx="256" cy="256" fill="#91e6a9" r="135"/><path d="m391 256c0-74.443-60.557-135-135-135v270c74.443 0 135-60.557 135-135z" fill="#26bfa6"/><path d="m301 204.789-45 45-15 15-30-30-21.211 21.211 51.211 51.211 15-15 66.211-66.211z" fill="#f0f7ff"/><path d="m301 204.789-45 45v42.422l66.211-66.211z" fill="#dfe7f4"/></g></svg>